<svg width="1600" height="1080" viewBox="0 0 1600 1080" fill="none" xmlns="http://www.w3.org/2000/svg">
  <defs>
    <linearGradient id="shellStroke" x1="0" y1="0" x2="1" y2="1">
      <stop offset="0%" stop-color="#353A47"/>
      <stop offset="100%" stop-color="#1A1F29"/>
    </linearGradient>
    <radialGradient id="bgRed" cx="0" cy="0" r="1" gradientUnits="userSpaceOnUse" gradientTransform="translate(220 870) rotate(-9) scale(520 380)">
      <stop offset="0%" stop-color="#8E2B22" stop-opacity="0.38"/>
      <stop offset="100%" stop-color="#8E2B22" stop-opacity="0"/>
    </radialGradient>
    <radialGradient id="bgViolet" cx="0" cy="0" r="1" gradientUnits="userSpaceOnUse" gradientTransform="translate(1330 150) rotate(8) scale(420 280)">
      <stop offset="0%" stop-color="#6258F4" stop-opacity="0.22"/>
      <stop offset="100%" stop-color="#6258F4" stop-opacity="0"/>
    </radialGradient>
    <filter id="shadow" x="-20%" y="-20%" width="140%" height="160%">
      <feDropShadow dx="0" dy="24" stdDeviation="28" flood-color="#000000" flood-opacity="0.35"/>
    </filter>
  </defs>

  <rect width="1600" height="1080" fill="#08090D"/>
  <rect width="1600" height="1080" fill="url(#bgRed)"/>
  <rect width="1600" height="1080" fill="url(#bgViolet)"/>

  <text x="86" y="72" fill="#F5F7FB" font-size="28" font-family="Noto Sans KR, sans-serif" font-weight="800">Raycast Workspace Rough v2</text>
  <text x="86" y="102" fill="#9099AA" font-size="16" font-family="Noto Sans KR, sans-serif">검색 shell 복제가 아니라 dark utility window, dense rows, action bar 기준</text>

  <g filter="url(#shadow)">
    <rect x="80" y="150" width="680" height="340" rx="30" fill="#11141B" stroke="url(#shellStroke)"/>
    <rect x="80" y="150" width="680" height="56" rx="30" fill="rgba(255,255,255,0.02)"/>
    <text x="116" y="184" fill="#D9DFEA" font-size="12" font-family="Noto Sans KR, sans-serif" font-weight="700" letter-spacing="2">DESKTOP LOGIN</text>
    <rect x="104" y="232" width="276" height="220" rx="20" fill="#11141B"/>
    <text x="116" y="262" fill="#AEB7C8" font-size="11" font-family="Noto Sans KR, sans-serif" font-weight="700" letter-spacing="2">RESUME ROOM</text>
    <text x="116" y="316" fill="#F5F7FB" font-size="34" font-family="Noto Sans KR, sans-serif" font-weight="800">이력서를 저장하고</text>
    <text x="116" y="354" fill="#F5F7FB" font-size="34" font-family="Noto Sans KR, sans-serif" font-weight="800">바로 이어 쓰는 작업실</text>
    <text x="116" y="394" fill="#98A1B3" font-size="15" font-family="Noto Sans KR, sans-serif">짧은 소개만 두 줄. fake command row 없음.</text>
    <rect x="442" y="230" width="286" height="224" rx="22" fill="#171B24" stroke="#2B313D"/>
    <text x="470" y="272" fill="#F5F7FB" font-size="20" font-family="Noto Sans KR, sans-serif" font-weight="700">Google 계정으로 시작</text>
    <text x="470" y="304" fill="#98A1B3" font-size="14" font-family="Noto Sans KR, sans-serif">최근 문서를 바로 이어 열 수 있습니다.</text>
    <rect x="470" y="334" width="166" height="44" rx="14" fill="#F1B179"/>
    <text x="491" y="362" fill="#15171D" font-size="14" font-family="Noto Sans KR, sans-serif" font-weight="700">Google 로그인</text>
    <rect x="470" y="396" width="224" height="16" rx="8" fill="#222733"/>
  </g>

  <g filter="url(#shadow)">
    <rect x="840" y="150" width="680" height="340" rx="30" fill="#11141B" stroke="url(#shellStroke)"/>
    <rect x="840" y="150" width="680" height="56" rx="30" fill="rgba(255,255,255,0.02)"/>
    <text x="876" y="184" fill="#D9DFEA" font-size="12" font-family="Noto Sans KR, sans-serif" font-weight="700" letter-spacing="2">DESKTOP LIST</text>
    <rect x="1034" y="166" width="214" height="28" rx="10" fill="#1C212C" stroke="#2D3441"/>
    <text x="1054" y="184" fill="#98A1B3" font-size="12" font-family="Noto Sans KR, sans-serif">문서 검색</text>
    <rect x="872" y="228" width="360" height="206" rx="22" fill="#171B24"/>
    <text x="892" y="256" fill="#AEB7C8" font-size="11" font-family="Noto Sans KR, sans-serif" font-weight="700" letter-spacing="2">RECENT</text>
    <rect x="888" y="274" width="328" height="56" rx="14" fill="#262C38"/>
    <text x="910" y="307" fill="#F5F7FB" font-size="14" font-family="Noto Sans KR, sans-serif" font-weight="700">박규태-이력서</text>
    <text x="1098" y="307" fill="#9099AA" font-size="12" font-family="Noto Sans KR, sans-serif">3월 23일</text>
    <text x="892" y="356" fill="#AEB7C8" font-size="11" font-family="Noto Sans KR, sans-serif" font-weight="700" letter-spacing="2">DOCUMENTS</text>
    <rect x="888" y="374" width="328" height="44" rx="12" fill="#1C212C"/>
    <rect x="888" y="426" width="328" height="44" rx="12" fill="#1C212C"/>
    <rect x="1252" y="228" width="236" height="206" rx="22" fill="#171B24"/>
    <rect x="1294" y="258" width="152" height="124" rx="18" fill="#F7F3EA"/>
    <rect x="1308" y="276" width="104" height="8" rx="4" fill="#E0D8CC"/>
    <rect x="1308" y="292" width="136" height="8" rx="4" fill="#E0D8CC"/>
    <rect x="1294" y="404" width="168" height="12" rx="6" fill="#212733"/>
    <rect x="872" y="444" width="616" height="28" rx="14" fill="#171B24" stroke="#2B313D"/>
    <text x="892" y="462" fill="#98A1B3" font-size="12" font-family="Noto Sans KR, sans-serif">선택된 문서: 박규태-이력서</text>
    <text x="1342" y="462" fill="#F5F7FB" font-size="12" font-family="Noto Sans KR, sans-serif">열기   복제   삭제</text>
  </g>

  <g filter="url(#shadow)">
    <rect x="80" y="540" width="920" height="420" rx="30" fill="#11141B" stroke="url(#shellStroke)"/>
    <rect x="80" y="540" width="920" height="56" rx="30" fill="rgba(255,255,255,0.02)"/>
    <text x="116" y="574" fill="#D9DFEA" font-size="12" font-family="Noto Sans KR, sans-serif" font-weight="700" letter-spacing="2">DESKTOP EDITOR</text>
    <rect x="104" y="620" width="208" height="286" rx="22" fill="#171B24"/>
    <text x="126" y="646" fill="#AEB7C8" font-size="11" font-family="Noto Sans KR, sans-serif" font-weight="700" letter-spacing="2">SECTIONS</text>
    <rect x="120" y="666" width="176" height="40" rx="12" fill="#262C38"/>
    <rect x="120" y="714" width="176" height="36" rx="12" fill="#1C212C"/>
    <rect x="120" y="758" width="176" height="36" rx="12" fill="#1C212C"/>
    <rect x="120" y="802" width="176" height="36" rx="12" fill="#1C212C"/>
    <rect x="336" y="620" width="320" height="286" rx="22" fill="#171B24"/>
    <text x="360" y="648" fill="#F5F7FB" font-size="18" font-family="Noto Sans KR, sans-serif" font-weight="700">현재 섹션 폼</text>
    <rect x="360" y="676" width="272" height="14" rx="7" fill="#232937"/>
    <rect x="360" y="716" width="272" height="44" rx="12" fill="#1C212C"/>
    <rect x="360" y="774" width="272" height="44" rx="12" fill="#1C212C"/>
    <rect x="360" y="832" width="272" height="44" rx="12" fill="#1C212C"/>
    <rect x="680" y="620" width="288" height="286" rx="22" fill="#0D1016"/>
    <rect x="718" y="650" width="212" height="226" rx="20" fill="#F7F3EA"/>
    <rect x="736" y="674" width="140" height="8" rx="4" fill="#DDD4C7"/>
    <rect x="736" y="694" width="154" height="8" rx="4" fill="#DDD4C7"/>
    <rect x="736" y="730" width="172" height="10" rx="5" fill="#ECE4D8"/>
    <rect x="104" y="916" width="864" height="28" rx="14" fill="#171B24" stroke="#2B313D"/>
    <text x="126" y="934" fill="#98A1B3" font-size="12" font-family="Noto Sans KR, sans-serif">저장됨 1분 전</text>
    <text x="796" y="934" fill="#F5F7FB" font-size="12" font-family="Noto Sans KR, sans-serif">저장   PDF   더보기</text>
  </g>

  <g filter="url(#shadow)">
    <rect x="1040" y="540" width="360" height="420" rx="32" fill="#11141B" stroke="url(#shellStroke)"/>
    <text x="1072" y="582" fill="#D9DFEA" font-size="12" font-family="Noto Sans KR, sans-serif" font-weight="700" letter-spacing="2">MOBILE</text>
    <rect x="1064" y="606" width="312" height="104" rx="20" fill="#171B24"/>
    <text x="1086" y="636" fill="#F5F7FB" font-size="16" font-family="Noto Sans KR, sans-serif" font-weight="700">최근 작업</text>
    <text x="1086" y="666" fill="#98A1B3" font-size="13" font-family="Noto Sans KR, sans-serif">최근 문서 하나만 강조</text>
    <rect x="1064" y="730" width="312" height="48" rx="14" fill="#1C212C"/>
    <rect x="1064" y="790" width="312" height="48" rx="14" fill="#1C212C"/>
    <rect x="1064" y="850" width="312" height="48" rx="14" fill="#1C212C"/>
    <rect x="1088" y="914" width="264" height="24" rx="12" fill="#171B24" stroke="#2B313D"/>
    <text x="1114" y="930" fill="#F5F7FB" font-size="12" font-family="Noto Sans KR, sans-serif">편집 / 미리보기      저장      더보기</text>
  </g>
</svg>
